# 3ds Max Wavefront OBJ Exporter v0.97b - (c)2007 guruware
# File Created: 30.01.2016 17:57:01

mtllib church.mtl

#
# object Box001
#

v  -18.1297 0.0000 21.9912
v  -18.1297 0.0000 7.3304
v  -6.0432 0.0000 7.3304
v  -6.0432 0.0000 21.9912
v  6.0432 0.0000 7.3304
v  6.0432 0.0000 21.9912
v  18.1297 0.0000 7.3304
v  18.1297 0.0000 21.9912
v  -18.1297 0.0000 -7.3304
v  -6.0432 0.0000 -7.3304
v  6.0432 0.0000 -7.3304
v  18.1297 0.0000 -7.3304
v  -18.1297 0.0000 -21.9912
v  -6.0432 0.0000 -21.9912
v  6.0432 0.0000 -21.9912
v  18.1297 0.0000 -21.9912
v  -18.1297 19.7475 21.9912
v  -6.0432 36.8996 21.9912
v  -6.0432 36.8996 7.3304
v  -18.1297 19.7475 7.3304
v  6.0432 36.8996 21.9912
v  6.0432 36.8996 7.3304
v  18.1297 19.7475 21.9912
v  18.1297 19.7475 7.3304
v  -6.0432 36.8996 -7.3304
v  -18.1297 19.7475 -7.3304
v  6.0432 36.8996 -7.3304
v  18.1297 19.7475 -7.3304
v  -6.0432 36.8996 -21.9912
v  -18.1297 19.7475 -21.9912
v  -2.4270 46.2833 -7.4347
v  2.4270 46.2833 -7.4347
v  2.4270 46.2833 -21.3196
v  -2.4270 46.2833 -21.3196
v  18.1297 19.7475 -21.9912
v  6.0432 36.8996 -21.9912
v  -6.0432 4.9369 21.9912
v  -18.1297 4.9369 21.9912
v  6.0432 4.9369 21.9912
v  18.1297 4.9369 21.9912
v  -6.0432 9.8738 21.9912
v  -18.1297 9.8738 21.9912
v  6.0432 9.8738 21.9912
v  18.1297 9.8738 21.9912
v  -6.0432 14.8107 21.9912
v  -18.1297 14.8107 21.9912
v  6.0432 14.8107 21.9912
v  18.1297 14.8107 21.9912
v  18.1297 4.9369 7.3304
v  18.1297 4.9369 -7.3304
v  18.1297 4.9369 -21.9912
v  18.1297 9.8738 7.3304
v  18.1297 9.8738 -7.3304
v  18.1297 9.8738 -21.9912
v  18.1297 14.8107 7.3304
v  18.1297 14.8107 -7.3304
v  18.1297 14.8107 -21.9912
v  6.0432 4.9369 -21.9912
v  -18.1297 4.9369 -21.9912
v  -6.0432 4.9369 -21.9912
v  6.0432 9.8738 -21.9912
v  -18.1297 9.8738 -21.9912
v  -6.0432 9.8738 -21.9912
v  6.0432 14.8107 -21.9912
v  -18.1297 14.8107 -21.9912
v  -6.0432 14.8107 -21.9912
v  -18.1297 4.9369 -7.3304
v  -18.1297 4.9369 7.3304
v  -18.1297 9.8738 -7.3304
v  -18.1297 9.8738 7.3304
v  -18.1297 14.8107 -7.3304
v  -18.1297 14.8107 7.3304
# 72 vertices

vn 0.0000 -1.0000 -0.0000
vn -0.8174 0.5760 -0.0000
vn -0.4604 0.8877 -0.0000
vn 0.4604 0.8877 -0.0000
vn 0.8174 0.5760 -0.0000
vn -0.6049 0.7963 -0.0000
vn 0.6049 0.7963 -0.0000
vn 0.0000 1.0000 -0.0000
vn 0.0000 0.0000 1.0000
vn 1.0000 0.0000 -0.0000
vn 0.0000 0.0000 -1.0000
vn -1.0000 0.0000 -0.0000
vn 0.0000 0.0111 0.9999
vn 0.9331 0.3596 -0.0000
vn 0.0000 0.0714 -0.9974
vn -0.9331 0.3596 -0.0000
# 16 vertex normals

vt 1.0000 0.0000 0.0000
vt 1.0000 0.3333 0.0000
vt 0.6667 0.3333 0.0000
vt 0.6667 0.0000 0.0000
vt 0.3333 0.3333 0.0000
vt 0.3333 0.0000 0.0000
vt -0.0000 0.3333 0.0000
vt -0.0000 0.0000 0.0000
vt 1.0000 0.6667 0.0000
vt 0.6667 0.6667 0.0000
vt 0.3333 0.6667 0.0000
vt -0.0000 0.6667 0.0000
vt 1.0000 1.0000 0.0000
vt 0.6667 1.0000 0.0000
vt 0.3333 1.0000 0.0000
vt -0.0000 1.0000 0.0000
vt 0.0000 0.0000 0.0000
vt 0.0000 0.3333 0.0000
vt 0.0000 0.6667 0.0000
vt 0.0000 1.0000 0.0000
vt 0.3333 0.2500 0.0000
vt 0.0000 0.2500 0.0000
vt 0.6667 0.2500 0.0000
vt 1.0000 0.2500 0.0000
vt 0.3333 0.5000 0.0000
vt 0.0000 0.5000 0.0000
vt 0.6667 0.5000 0.0000
vt 1.0000 0.5000 0.0000
vt 0.3333 0.7500 0.0000
vt 0.0000 0.7500 0.0000
vt 0.6667 0.7500 0.0000
vt 1.0000 0.7500 0.0000
# 32 texture coords

g Box001
usemtl Material__5
s 2
f 1/1/1 2/2/1 3/3/1 4/4/1 
f 4/4/1 3/3/1 5/5/1 6/6/1 
f 6/6/1 5/5/1 7/7/1 8/8/1 
f 2/2/1 9/9/1 10/10/1 3/3/1 
f 3/3/1 10/10/1 11/11/1 5/5/1 
f 5/5/1 11/11/1 12/12/1 7/7/1 
f 9/9/1 13/13/1 14/14/1 10/10/1 
f 10/10/1 14/14/1 15/15/1 11/11/1 
f 11/11/1 15/15/1 16/16/1 12/12/1 
s 4
f 17/17/2 18/6/3 19/5/3 20/18/2 
f 18/6/3 21/4/4 22/3/4 19/5/3 
f 21/4/4 23/1/5 24/2/5 22/3/4 
f 20/18/2 19/5/3 25/11/6 26/19/2 
f 19/5/3 22/3/4 27/10/7 25/11/6 
f 22/3/4 24/2/5 28/9/5 27/10/7 
f 26/19/2 25/11/6 29/15/2 30/20/2 
f 31/11/8 32/10/8 33/14/8 34/15/8 
f 27/10/7 28/9/5 35/13/5 36/14/5 
s 8
f 1/17/9 4/6/9 37/21/9 38/22/9 
f 4/6/9 6/4/9 39/23/9 37/21/9 
f 6/4/9 8/1/9 40/24/9 39/23/9 
f 38/22/9 37/21/9 41/25/9 42/26/9 
f 37/21/9 39/23/9 43/27/9 41/25/9 
f 39/23/9 40/24/9 44/28/9 43/27/9 
f 42/26/9 41/25/9 45/29/9 46/30/9 
f 41/25/9 43/27/9 47/31/9 45/29/9 
f 43/27/9 44/28/9 48/32/9 47/31/9 
f 46/30/9 45/29/9 18/15/9 17/20/9 
f 45/29/9 47/31/9 21/14/9 18/15/9 
f 47/31/9 48/32/9 23/13/9 21/14/9 
s 16
f 8/17/10 7/6/10 49/21/10 40/22/10 
f 7/6/10 12/4/10 50/23/10 49/21/10 
f 12/4/10 16/1/10 51/24/10 50/23/10 
f 40/22/10 49/21/10 52/25/10 44/26/10 
f 49/21/10 50/23/10 53/27/10 52/25/10 
f 50/23/10 51/24/10 54/28/10 53/27/10 
f 44/26/10 52/25/10 55/29/10 48/30/10 
f 52/25/10 53/27/10 56/31/10 55/29/10 
f 53/27/10 54/28/10 57/32/10 56/31/10 
f 48/30/10 55/29/10 24/15/10 23/20/10 
f 55/29/10 56/31/10 28/14/10 24/15/10 
f 56/31/10 57/32/10 35/13/10 28/14/10 
s 32
f 16/17/11 15/6/11 58/21/11 51/22/11 
f 14/4/11 13/1/11 59/24/11 60/23/11 
f 51/22/11 58/21/11 61/25/11 54/26/11 
f 60/23/11 59/24/11 62/28/11 63/27/11 
f 54/26/11 61/25/11 64/29/11 57/30/11 
f 63/27/11 62/28/11 65/32/11 66/31/11 
f 57/30/11 64/29/11 36/15/11 35/20/11 
f 64/29/11 66/31/11 29/14/11 36/15/11 
f 66/31/11 65/32/11 30/13/11 29/14/11 
s 64
f 13/17/12 9/6/12 67/21/12 59/22/12 
f 9/6/12 2/4/12 68/23/12 67/21/12 
f 2/4/12 1/1/12 38/24/12 68/23/12 
f 59/22/12 67/21/12 69/25/12 62/26/12 
f 67/21/12 68/23/12 70/27/12 69/25/12 
f 68/23/12 38/24/12 42/28/12 70/27/12 
f 62/26/12 69/25/12 71/29/12 65/30/12 
f 69/25/12 70/27/12 72/31/12 71/29/12 
f 70/27/12 42/28/12 46/32/12 72/31/12 
f 65/30/12 71/29/12 26/15/12 30/20/12 
f 71/29/12 72/31/12 20/14/12 26/15/12 
f 72/31/12 46/32/12 17/13/12 20/14/12 
s off
f 25/11/13 27/10/13 32/10/13 31/11/13 
f 27/10/14 36/14/14 33/14/14 32/10/14 
f 36/14/15 29/15/15 34/15/15 33/14/15 
f 29/15/16 25/11/16 31/11/16 34/15/16 
# 67 polygons

#
# object Box002
#

v  -1.4112 0.0000 1.5876
v  -1.4112 0.0000 0.5292
v  -0.4704 0.0000 0.5292
v  -0.4704 0.0000 1.5876
v  0.4704 0.0000 0.5292
v  0.4704 0.0000 1.5876
v  1.4112 0.0000 0.5292
v  1.4112 0.0000 1.5876
v  -1.4112 0.0000 -0.5292
v  -0.4704 0.0000 -0.5292
v  0.4704 0.0000 -0.5292
v  1.4112 0.0000 -0.5292
v  -1.4112 0.0000 -1.5876
v  -0.4704 0.0000 -1.5876
v  0.4704 0.0000 -1.5876
v  1.4112 0.0000 -1.5876
v  -1.4112 14.6197 1.5876
v  -0.4704 14.6197 1.5876
v  -0.4704 14.6197 0.5292
v  -1.4112 14.6197 0.5292
v  0.4704 14.6197 1.5876
v  0.4704 14.6197 0.5292
v  1.4112 14.6197 1.5876
v  1.4112 14.6197 0.5292
v  -0.4704 14.6197 -0.5292
v  -1.4112 14.6197 -0.5292
v  0.4704 14.6197 -0.5292
v  1.4112 14.6197 -0.5292
v  -0.4704 14.6197 -1.5876
v  -1.4112 14.6197 -1.5876
v  0.4704 14.6197 -1.5876
v  1.4112 14.6197 -1.5876
v  -0.4704 3.6549 1.5876
v  -1.4112 3.6549 1.5876
v  0.4704 3.6549 1.5876
v  1.4112 3.6549 1.5876
v  -0.4704 7.3098 1.5876
v  -1.4112 7.3098 1.5876
v  0.4704 7.3098 1.5876
v  1.4112 7.3098 1.5876
v  -0.4704 10.9648 1.5876
v  -1.4112 10.9648 1.5876
v  0.4704 10.9648 1.5876
v  1.4112 10.9648 1.5876
v  1.4112 3.6549 0.5292
v  1.4112 3.6549 -0.5292
v  1.4112 3.6549 -1.5876
v  1.4112 7.3098 0.5292
v  1.4112 7.3098 -0.5292
v  1.4112 7.3098 -1.5876
v  1.4112 10.9648 0.5292
v  1.4112 10.9648 -0.5292
v  1.4112 10.9648 -1.5876
v  0.4704 3.6549 -1.5876
v  -0.4704 3.6549 -1.5876
v  -1.4112 3.6549 -1.5876
v  0.4704 7.3098 -1.5876
v  -0.4704 7.3098 -1.5876
v  -1.4112 7.3098 -1.5876
v  0.4704 10.9648 -1.5876
v  -0.4704 10.9648 -1.5876
v  -1.4112 10.9648 -1.5876
v  -1.4112 3.6549 -0.5292
v  -1.4112 3.6549 0.5292
v  -1.4112 7.3098 -0.5292
v  -1.4112 7.3098 0.5292
v  -1.4112 10.9648 -0.5292
v  -1.4112 10.9648 0.5292
# 68 vertices

vn 0.0000 -1.0000 -0.0000
vn 0.0000 1.0000 -0.0000
vn 0.0000 0.0000 1.0000
vn 1.0000 0.0000 -0.0000
vn 0.0000 0.0000 -1.0000
vn -1.0000 0.0000 -0.0000
# 6 vertex normals

vt 1.0000 0.0000 0.0000
vt 1.0000 0.3333 0.0000
vt 0.6667 0.3333 0.0000
vt 0.6667 0.0000 0.0000
vt 0.3333 0.3333 0.0000
vt 0.3333 0.0000 0.0000
vt 0.0000 0.3333 0.0000
vt 0.0000 0.0000 0.0000
vt 1.0000 0.6667 0.0000
vt 0.6667 0.6667 0.0000
vt 0.3333 0.6667 0.0000
vt 0.0000 0.6667 0.0000
vt 1.0000 1.0000 0.0000
vt 0.6667 1.0000 0.0000
vt 0.3333 1.0000 0.0000
vt 0.0000 1.0000 0.0000
vt 0.3333 0.2500 0.0000
vt 0.0000 0.2500 0.0000
vt 0.6667 0.2500 0.0000
vt 1.0000 0.2500 0.0000
vt 0.3333 0.5000 0.0000
vt 0.0000 0.5000 0.0000
vt 0.6667 0.5000 0.0000
vt 1.0000 0.5000 0.0000
vt 0.3333 0.7500 0.0000
vt 0.0000 0.7500 0.0000
vt 0.6667 0.7500 0.0000
vt 1.0000 0.7500 0.0000
# 28 texture coords

g Box002
usemtl Material__5
s 2
f 73/33/17 74/34/17 75/35/17 76/36/17 
f 76/36/17 75/35/17 77/37/17 78/38/17 
f 78/38/17 77/37/17 79/39/17 80/40/17 
f 74/34/17 81/41/17 82/42/17 75/35/17 
f 75/35/17 82/42/17 83/43/17 77/37/17 
f 77/37/17 83/43/17 84/44/17 79/39/17 
f 81/41/17 85/45/17 86/46/17 82/42/17 
f 82/42/17 86/46/17 87/47/17 83/43/17 
f 83/43/17 87/47/17 88/48/17 84/44/17 
s 4
f 89/40/18 90/38/18 91/37/18 92/39/18 
f 90/38/18 93/36/18 94/35/18 91/37/18 
f 93/36/18 95/33/18 96/34/18 94/35/18 
f 92/39/18 91/37/18 97/43/18 98/44/18 
f 91/37/18 94/35/18 99/42/18 97/43/18 
f 94/35/18 96/34/18 100/41/18 99/42/18 
f 98/44/18 97/43/18 101/47/18 102/48/18 
f 97/43/18 99/42/18 103/46/18 101/47/18 
f 99/42/18 100/41/18 104/45/18 103/46/18 
s 8
f 73/40/19 76/38/19 105/49/19 106/50/19 
f 76/38/19 78/36/19 107/51/19 105/49/19 
f 78/36/19 80/33/19 108/52/19 107/51/19 
f 106/50/19 105/49/19 109/53/19 110/54/19 
f 105/49/19 107/51/19 111/55/19 109/53/19 
f 107/51/19 108/52/19 112/56/19 111/55/19 
f 110/54/19 109/53/19 113/57/19 114/58/19 
f 109/53/19 111/55/19 115/59/19 113/57/19 
f 111/55/19 112/56/19 116/60/19 115/59/19 
f 114/58/19 113/57/19 90/47/19 89/48/19 
f 113/57/19 115/59/19 93/46/19 90/47/19 
f 115/59/19 116/60/19 95/45/19 93/46/19 
s 16
f 80/40/20 79/38/20 117/49/20 108/50/20 
f 79/38/20 84/36/20 118/51/20 117/49/20 
f 84/36/20 88/33/20 119/52/20 118/51/20 
f 108/50/20 117/49/20 120/53/20 112/54/20 
f 117/49/20 118/51/20 121/55/20 120/53/20 
f 118/51/20 119/52/20 122/56/20 121/55/20 
f 112/54/20 120/53/20 123/57/20 116/58/20 
f 120/53/20 121/55/20 124/59/20 123/57/20 
f 121/55/20 122/56/20 125/60/20 124/59/20 
f 116/58/20 123/57/20 96/47/20 95/48/20 
f 123/57/20 124/59/20 100/46/20 96/47/20 
f 124/59/20 125/60/20 104/45/20 100/46/20 
s 32
f 88/40/21 87/38/21 126/49/21 119/50/21 
f 87/38/21 86/36/21 127/51/21 126/49/21 
f 86/36/21 85/33/21 128/52/21 127/51/21 
f 119/50/21 126/49/21 129/53/21 122/54/21 
f 126/49/21 127/51/21 130/55/21 129/53/21 
f 127/51/21 128/52/21 131/56/21 130/55/21 
f 122/54/21 129/53/21 132/57/21 125/58/21 
f 129/53/21 130/55/21 133/59/21 132/57/21 
f 130/55/21 131/56/21 134/60/21 133/59/21 
f 125/58/21 132/57/21 103/47/21 104/48/21 
f 132/57/21 133/59/21 101/46/21 103/47/21 
f 133/59/21 134/60/21 102/45/21 101/46/21 
s 64
f 85/40/22 81/38/22 135/49/22 128/50/22 
f 81/38/22 74/36/22 136/51/22 135/49/22 
f 74/36/22 73/33/22 106/52/22 136/51/22 
f 128/50/22 135/49/22 137/53/22 131/54/22 
f 135/49/22 136/51/22 138/55/22 137/53/22 
f 136/51/22 106/52/22 110/56/22 138/55/22 
f 131/54/22 137/53/22 139/57/22 134/58/22 
f 137/53/22 138/55/22 140/59/22 139/57/22 
f 138/55/22 110/56/22 114/60/22 140/59/22 
f 134/58/22 139/57/22 98/47/22 102/48/22 
f 139/57/22 140/59/22 92/46/22 98/47/22 
f 140/59/22 114/60/22 89/45/22 92/46/22 
# 66 polygons

#
# object Box003
#

v  -0.0000 1.0809 0.7898
v  -0.0000 1.0809 0.2633
v  -0.0000 0.3603 0.2633
v  -0.0000 0.3603 0.7898
v  0.0000 -0.3603 0.2633
v  0.0000 -0.3603 0.7898
v  0.0000 -1.0809 0.2633
v  0.0000 -1.0809 0.7898
v  -0.0000 1.0809 -0.2633
v  -0.0000 0.3603 -0.2633
v  0.0000 -0.3603 -0.2633
v  0.0000 -1.0809 -0.2633
v  -0.0000 1.0809 -0.7898
v  -0.0000 0.3603 -0.7898
v  0.0000 -0.3603 -0.7898
v  0.0000 -1.0809 -0.7898
v  -8.2808 1.0809 0.7898
v  -8.2808 0.3603 0.7898
v  -8.2808 0.3603 0.2633
v  -8.2808 1.0809 0.2633
v  -8.2808 -0.3603 0.7898
v  -8.2808 -0.3603 0.2633
v  -8.2808 -1.0809 0.7898
v  -8.2808 -1.0809 0.2633
v  -8.2808 0.3603 -0.2633
v  -8.2808 1.0809 -0.2633
v  -8.2808 -0.3603 -0.2633
v  -8.2808 -1.0809 -0.2633
v  -8.2808 0.3603 -0.7898
v  -8.2808 1.0809 -0.7898
v  -8.2808 -0.3603 -0.7898
v  -8.2808 -1.0809 -0.7898
v  -2.0702 0.3603 0.7898
v  -2.0702 1.0809 0.7898
v  -2.0702 -0.3603 0.7898
v  -2.0702 -1.0809 0.7898
v  -4.1404 0.3603 0.7898
v  -4.1404 1.0809 0.7898
v  -4.1404 -0.3603 0.7898
v  -4.1404 -1.0809 0.7898
v  -6.2106 0.3603 0.7898
v  -6.2106 1.0809 0.7898
v  -6.2106 -0.3603 0.7898
v  -6.2106 -1.0809 0.7898
v  -2.0702 -1.0809 0.2633
v  -2.0702 -1.0809 -0.2633
v  -2.0702 -1.0809 -0.7898
v  -4.1404 -1.0809 0.2633
v  -4.1404 -1.0809 -0.2633
v  -4.1404 -1.0809 -0.7898
v  -6.2106 -1.0809 0.2633
v  -6.2106 -1.0809 -0.2633
v  -6.2106 -1.0809 -0.7898
v  -2.0702 -0.3603 -0.7898
v  -2.0702 0.3603 -0.7898
v  -2.0702 1.0809 -0.7898
v  -4.1404 -0.3603 -0.7898
v  -4.1404 0.3603 -0.7898
v  -4.1404 1.0809 -0.7898
v  -6.2106 -0.3603 -0.7898
v  -6.2106 0.3603 -0.7898
v  -6.2106 1.0809 -0.7898
v  -2.0702 1.0809 -0.2633
v  -2.0702 1.0809 0.2633
v  -4.1404 1.0809 -0.2633
v  -4.1404 1.0809 0.2633
v  -6.2106 1.0809 -0.2633
v  -6.2106 1.0809 0.2633
# 68 vertices

vn 1.0000 0.0000 -0.0000
vn -1.0000 -0.0000 -0.0000
vn 0.0000 0.0000 1.0000
vn 0.0000 -1.0000 -0.0000
vn 0.0000 0.0000 -1.0000
vn -0.0000 1.0000 -0.0000
# 6 vertex normals

vt 1.0000 0.0000 0.0000
vt 1.0000 0.3333 0.0000
vt 0.6667 0.3333 0.0000
vt 0.6667 0.0000 0.0000
vt 0.3333 0.3333 0.0000
vt 0.3333 0.0000 0.0000
vt 0.0000 0.3333 0.0000
vt 0.0000 0.0000 0.0000
vt 1.0000 0.6667 0.0000
vt 0.6667 0.6667 0.0000
vt 0.3333 0.6667 0.0000
vt 0.0000 0.6667 0.0000
vt 1.0000 1.0000 0.0000
vt 0.6667 1.0000 0.0000
vt 0.3333 1.0000 0.0000
vt 0.0000 1.0000 0.0000
vt 0.3333 0.2500 0.0000
vt 0.0000 0.2500 0.0000
vt 0.6667 0.2500 0.0000
vt 1.0000 0.2500 0.0000
vt 0.3333 0.5000 0.0000
vt 0.0000 0.5000 0.0000
vt 0.6667 0.5000 0.0000
vt 1.0000 0.5000 0.0000
vt 0.3333 0.7500 0.0000
vt 0.0000 0.7500 0.0000
vt 0.6667 0.7500 0.0000
vt 1.0000 0.7500 0.0000
# 28 texture coords

g Box003
usemtl Material__5
s 2
f 144/64/23 143/63/23 142/62/23 141/61/23 
f 146/66/23 145/65/23 143/63/23 144/64/23 
f 148/68/23 147/67/23 145/65/23 146/66/23 
f 143/63/23 150/70/23 149/69/23 142/62/23 
f 145/65/23 151/71/23 150/70/23 143/63/23 
f 147/67/23 152/72/23 151/71/23 145/65/23 
f 150/70/23 154/74/23 153/73/23 149/69/23 
f 151/71/23 155/75/23 154/74/23 150/70/23 
f 152/72/23 156/76/23 155/75/23 151/71/23 
s 4
f 160/67/24 159/65/24 158/66/24 157/68/24 
f 159/65/24 162/63/24 161/64/24 158/66/24 
f 162/63/24 164/62/24 163/61/24 161/64/24 
f 166/72/24 165/71/24 159/65/24 160/67/24 
f 165/71/24 167/70/24 162/63/24 159/65/24 
f 167/70/24 168/69/24 164/62/24 162/63/24 
f 170/76/24 169/75/24 165/71/24 166/72/24 
f 169/75/24 171/74/24 167/70/24 165/71/24 
f 171/74/24 172/73/24 168/69/24 167/70/24 
s 8
f 174/78/25 173/77/25 144/66/25 141/68/25 
f 173/77/25 175/79/25 146/64/25 144/66/25 
f 175/79/25 176/80/25 148/61/25 146/64/25 
f 178/82/25 177/81/25 173/77/25 174/78/25 
f 177/81/25 179/83/25 175/79/25 173/77/25 
f 179/83/25 180/84/25 176/80/25 175/79/25 
f 182/86/25 181/85/25 177/81/25 178/82/25 
f 181/85/25 183/87/25 179/83/25 177/81/25 
f 183/87/25 184/88/25 180/84/25 179/83/25 
f 157/76/25 158/75/25 181/85/25 182/86/25 
f 158/75/25 161/74/25 183/87/25 181/85/25 
f 161/74/25 163/73/25 184/88/25 183/87/25 
s 16
f 176/78/26 185/77/26 147/66/26 148/68/26 
f 185/77/26 186/79/26 152/64/26 147/66/26 
f 186/79/26 187/80/26 156/61/26 152/64/26 
f 180/82/26 188/81/26 185/77/26 176/78/26 
f 188/81/26 189/83/26 186/79/26 185/77/26 
f 189/83/26 190/84/26 187/80/26 186/79/26 
f 184/86/26 191/85/26 188/81/26 180/82/26 
f 191/85/26 192/87/26 189/83/26 188/81/26 
f 192/87/26 193/88/26 190/84/26 189/83/26 
f 163/76/26 164/75/26 191/85/26 184/86/26 
f 164/75/26 168/74/26 192/87/26 191/85/26 
f 168/74/26 172/73/26 193/88/26 192/87/26 
s 32
f 187/78/27 194/77/27 155/66/27 156/68/27 
f 194/77/27 195/79/27 154/64/27 155/66/27 
f 195/79/27 196/80/27 153/61/27 154/64/27 
f 190/82/27 197/81/27 194/77/27 187/78/27 
f 197/81/27 198/83/27 195/79/27 194/77/27 
f 198/83/27 199/84/27 196/80/27 195/79/27 
f 193/86/27 200/85/27 197/81/27 190/82/27 
f 200/85/27 201/87/27 198/83/27 197/81/27 
f 201/87/27 202/88/27 199/84/27 198/83/27 
f 172/76/27 171/75/27 200/85/27 193/86/27 
f 171/75/27 169/74/27 201/87/27 200/85/27 
f 169/74/27 170/73/27 202/88/27 201/87/27 
s 64
f 196/78/28 203/77/28 149/66/28 153/68/28 
f 203/77/28 204/79/28 142/64/28 149/66/28 
f 204/79/28 174/80/28 141/61/28 142/64/28 
f 199/82/28 205/81/28 203/77/28 196/78/28 
f 205/81/28 206/83/28 204/79/28 203/77/28 
f 206/83/28 178/84/28 174/80/28 204/79/28 
f 202/86/28 207/85/28 205/81/28 199/82/28 
f 207/85/28 208/87/28 206/83/28 205/81/28 
f 208/87/28 182/88/28 178/84/28 206/83/28 
f 170/76/28 166/75/28 207/85/28 202/86/28 
f 166/75/28 160/74/28 208/87/28 207/85/28 
f 160/74/28 157/73/28 182/88/28 208/87/28 
# 66 polygons

