# 3ds Max Wavefront OBJ Exporter v0.97b - (c)2007 guruware
# File Created: 30.01.2016 18:36:45

mtllib obilisk1.mtl

#
# object Pyramid001
#

v  0.0000 15.0100 -0.0000
v  -1.8169 7.1595 1.4899
v  1.8169 7.1595 1.4899
v  1.8169 7.1595 -1.4899
v  -1.8169 7.1595 -1.4899
v  -2.9909 -9.7757 2.4528
v  0.0000 -9.7757 -0.0000
v  2.9909 -9.7757 2.4528
v  2.9909 -9.7757 -2.4528
v  -2.9909 -9.7757 -2.4528
v  -2.2103 -0.1303 1.8631
v  2.2103 -0.1303 1.8631
v  2.2103 -0.1303 -1.8631
v  -2.2103 -0.1303 -1.8631
# 14 vertices

vn 0.0000 0.2401 0.9707
vn 0.8849 0.4657 -0.0000
vn 0.0000 0.2401 -0.9707
vn -0.8849 0.4657 -0.0000
vn 0.0000 -1.0000 -0.0000
vn -0.0000 -1.0000 -0.0000
vn -0.0000 -1.0000 0.0000
vn 0.0000 -1.0000 0.0000
vn 0.0000 0.0666 0.9978
vn 0.9926 0.1218 -0.0000
vn 0.0000 0.0666 -0.9978
vn -0.9926 0.1218 -0.0000
vn 0.0000 0.0794 0.9968
vn 0.9835 0.1810 -0.0000
vn 0.0000 0.0794 -0.9968
vn -0.9835 0.1810 -0.0000
# 16 vertex normals

vt 0.5000 1.0000 0.0000
vt 0.0000 0.0000 0.0000
vt 1.0000 0.0000 0.0000
vt -0.5637 0.0000 0.0000
vt 0.4363 0.0000 0.0000
vt 0.0000 1.0000 0.0000
vt 0.5000 0.5000 0.0000
vt 1.0000 1.0000 0.0000
# 8 texture coords

g Pyramid001
usemtl Material__3
s 4
f 1/1/1 2/2/1 3/3/1 
s 2
f 1/1/2 3/4/2 4/5/2 
s 16
f 1/1/3 4/2/3 5/3/3 
s 32
f 1/1/4 5/4/4 2/5/4 
s 8
f 6/6/5 7/7/5 8/8/6 
f 8/8/6 7/7/5 9/3/7 
f 9/3/7 7/7/5 10/2/8 
f 10/2/8 7/7/5 6/6/5 
s off
f 3/8/9 2/6/9 11/6/9 12/8/9 
f 4/3/10 3/8/10 12/8/10 13/3/10 
f 5/2/11 4/3/11 13/3/11 14/2/11 
f 2/6/12 5/2/12 14/2/12 11/6/12 
f 12/8/13 11/6/13 6/6/13 8/8/13 
f 13/3/14 12/8/14 8/8/14 9/3/14 
f 14/2/15 13/3/15 9/3/15 10/2/15 
f 11/6/16 14/2/16 10/2/16 6/6/16 
# 8 polygons - 8 triangles

