# 3ds Max Wavefront OBJ Exporter v0.97b - (c)2007 guruware
# File Created: 30.01.2016 18:38:29

mtllib obilisk2.mtl

#
# object Pyramid002
#

v  0.0000 10.9886 -0.0000
v  0.0511 5.0519 3.0241
v  3.0211 5.0519 -0.1452
v  -0.0511 5.0519 -3.0241
v  -3.0211 5.0519 0.1452
v  -2.9911 -10.9886 2.8995
v  0.0000 -10.9886 -0.0000
v  2.9911 -10.9886 2.8995
v  2.9911 -10.9886 -2.8995
v  -2.9911 -10.9886 -2.8995
# 10 vertices

vn 0.6877 0.3342 0.6445
vn 0.6422 0.3435 -0.6853
vn -0.6877 0.3342 -0.6445
vn -0.6422 0.3435 0.6853
vn 0.0000 -1.0000 -0.0000
vn 0.3332 0.0538 0.9413
vn 0.9412 0.0555 -0.3332
vn -0.3332 0.0538 -0.9413
vn -0.9412 0.0555 0.3332
# 9 vertex normals

vt 0.5000 1.0000 0.0000
vt 0.0000 0.0000 0.0000
vt 1.0000 0.0000 0.0000
vt -0.0158 0.0000 0.0000
vt 0.9842 0.0000 0.0000
vt 0.0000 1.0000 0.0000
vt 0.5000 0.5000 0.0000
vt 1.0000 1.0000 0.0000
# 8 texture coords

g Pyramid002
usemtl Material__4
s 4
f 1/1/1 2/2/1 3/3/1 
s 2
f 1/1/2 3/4/2 4/5/2 
s 16
f 1/1/3 4/2/3 5/3/3 
s 32
f 1/1/4 5/4/4 2/5/4 
s 8
f 6/6/5 7/7/5 8/8/5 
f 8/8/5 7/7/5 9/3/5 
f 9/3/5 7/7/5 10/2/5 
f 10/2/5 7/7/5 6/6/5 
s off
f 3/8/6 2/6/6 6/6/6 8/8/6 
f 4/3/7 3/8/7 8/8/7 9/3/7 
f 5/2/8 4/3/8 9/3/8 10/2/8 
f 2/6/9 5/2/9 10/2/9 6/6/9 
# 4 polygons - 8 triangles

