# 3ds Max Wavefront OBJ Exporter v0.97b - (c)2007 guruware
# File Created: 30.01.2016 18:26:49

mtllib tree1.mtl

#
# object Cylinder001
#

v  16.1280 31.4499 -0.0000
v  15.5136 29.6331 -3.4843
v  10.7272 32.5104 -1.7421
v  11.0343 32.5104 -0.0000
v  13.7446 30.4816 -6.5483
v  9.8426 32.5104 -3.2741
v  11.0343 32.0272 -8.8225
v  8.4875 32.5104 -4.4112
v  7.7097 30.6364 -10.0326
v  6.8252 32.5104 -5.0163
v  4.1717 32.0173 -10.0326
v  5.0562 32.5104 -5.0163
v  0.8470 30.3785 -8.8225
v  3.3938 32.5104 -4.4112
v  -1.8633 32.1082 -6.5483
v  2.0387 32.5104 -3.2741
v  -3.6323 30.7521 -3.4843
v  1.1542 32.5104 -1.7421
v  -4.2466 32.5151 -0.0000
v  0.8470 32.5104 -0.0000
v  -3.6323 31.0062 3.4843
v  1.1542 32.5104 1.7421
v  -1.8633 31.4499 6.5483
v  2.0387 32.5104 3.2741
v  0.8470 29.5445 8.8225
v  3.3938 32.5104 4.4112
v  4.1717 32.8961 10.0326
v  5.0562 32.5104 5.0163
v  7.7097 32.0354 10.0326
v  6.8252 32.5104 5.0163
v  11.0343 29.8201 8.8225
v  8.4875 32.5104 4.4112
v  13.7446 31.4499 6.5483
v  9.8426 32.5104 3.2741
v  15.5136 27.1465 3.4843
v  10.7272 32.5104 1.7421
v  5.9407 33.2643 -0.0000
# 37 vertices

vn 0.2657 0.9274 0.2633
vn 0.3954 0.8776 -0.2712
vn 0.2542 0.9550 -0.1529
vn 0.2866 0.9509 0.1168
vn 0.4165 0.9091 0.0104
vn 0.2422 0.9551 -0.1704
vn 0.1192 0.9878 -0.1001
vn 0.1293 0.9845 -0.1182
vn 0.0235 0.9536 -0.3003
vn -0.0094 0.9756 -0.2193
vn -0.0199 0.9877 -0.1554
vn 0.0185 0.9855 -0.1688
vn -0.1854 0.9431 -0.2760
vn -0.1630 0.9715 -0.1723
vn -0.0486 0.9884 -0.1440
vn -0.0878 0.9847 -0.1508
vn -0.2487 0.9632 -0.1023
vn -0.2079 0.9778 -0.0261
vn -0.0569 0.9962 -0.0666
vn -0.1228 0.9905 -0.0620
vn -0.1993 0.9536 0.2256
vn -0.1454 0.9833 0.1093
vn -0.1108 0.9534 0.2807
vn -0.1571 0.9812 0.1121
vn -0.2735 0.9040 0.3287
vn -0.0967 0.9534 0.2857
vn -0.2724 0.9584 -0.0853
vn -0.1348 0.9850 0.1081
vn 0.3694 0.9241 0.0978
vn 0.0459 0.9956 0.0811
vn 0.2819 0.9048 0.3193
vn 0.1937 0.9622 0.1914
vn 0.3507 0.9326 0.0856
vn 0.1403 0.9725 0.1861
vn 0.6309 0.7502 0.1980
vn 0.4063 0.9133 0.0291
vn -0.0000 1.0000 0.0000
# 37 vertex normals

vt 1.0000 0.5000 0.0000
vt 0.9698 0.6736 0.0000
vt 0.7349 0.5868 0.0000
vt 0.7500 0.5000 0.0000
vt 0.8830 0.8264 0.0000
vt 0.6915 0.6632 0.0000
vt 0.7500 0.9397 0.0000
vt 0.6250 0.7198 0.0000
vt 0.5868 1.0000 0.0000
vt 0.5434 0.7500 0.0000
vt 0.4132 1.0000 0.0000
vt 0.4566 0.7500 0.0000
vt 0.2500 0.9397 0.0000
vt 0.3750 0.7198 0.0000
vt 0.1170 0.8264 0.0000
vt 0.3085 0.6632 0.0000
vt 0.0302 0.6736 0.0000
vt 0.2651 0.5868 0.0000
vt -0.0000 0.5000 0.0000
vt 0.2500 0.5000 0.0000
vt 0.0302 0.3264 0.0000
vt 0.2651 0.4132 0.0000
vt 0.1170 0.1736 0.0000
vt 0.3085 0.3368 0.0000
vt 0.2500 0.0603 0.0000
vt 0.3750 0.2802 0.0000
vt 0.4132 0.0000 0.0000
vt 0.4566 0.2500 0.0000
vt 0.5868 0.0000 0.0000
vt 0.5434 0.2500 0.0000
vt 0.7500 0.0603 0.0000
vt 0.6250 0.2802 0.0000
vt 0.8830 0.1736 0.0000
vt 0.6915 0.3368 0.0000
vt 0.9698 0.3264 0.0000
vt 0.7349 0.4132 0.0000
vt 0.5000 0.5000 0.0000
# 37 texture coords

g Cylinder001
usemtl Material__2
s 1
f 1/1/1 2/2/2 3/3/3 4/4/4 
f 2/2/2 5/5/5 6/6/6 3/3/3 
f 5/5/5 7/7/7 8/8/8 6/6/6 
f 7/7/7 9/9/9 10/10/10 8/8/8 
f 9/9/9 11/11/11 12/12/12 10/10/10 
f 11/11/11 13/13/13 14/14/14 12/12/12 
f 13/13/13 15/15/15 16/16/16 14/14/14 
f 15/15/15 17/17/17 18/18/18 16/16/16 
f 17/17/17 19/19/19 20/20/20 18/18/18 
f 19/19/19 21/21/21 22/22/22 20/20/20 
f 21/21/21 23/23/23 24/24/24 22/22/22 
f 23/23/23 25/25/25 26/26/26 24/24/24 
f 25/25/25 27/27/27 28/28/28 26/26/26 
f 27/27/27 29/29/29 30/30/30 28/28/28 
f 29/29/29 31/31/31 32/32/32 30/30/30 
f 31/31/31 33/33/33 34/34/34 32/32/32 
f 33/33/33 35/35/35 36/36/36 34/34/34 
f 35/35/35 1/1/1 4/4/4 36/36/36 
f 4/4/4 3/3/3 37/37/37 
f 3/3/3 6/6/6 37/37/37 
f 6/6/6 8/8/8 37/37/37 
f 8/8/8 10/10/10 37/37/37 
f 10/10/10 12/12/12 37/37/37 
f 12/12/12 14/14/14 37/37/37 
f 14/14/14 16/16/16 37/37/37 
f 16/16/16 18/18/18 37/37/37 
f 18/18/18 20/20/20 37/37/37 
f 20/20/20 22/22/22 37/37/37 
f 22/22/22 24/24/24 37/37/37 
f 24/24/24 26/26/26 37/37/37 
f 26/26/26 28/28/28 37/37/37 
f 28/28/28 30/30/30 37/37/37 
f 30/30/30 32/32/32 37/37/37 
f 32/32/32 34/34/34 37/37/37 
f 34/34/34 36/36/36 37/37/37 
f 36/36/36 4/4/4 37/37/37 
# 18 polygons - 18 triangles

#
# object Cone002
#

v  -0.8298 2.2321 0.0000
v  -4.0456 2.2391 -1.8586
v  -4.4187 2.2400 -0.9618
v  -4.5459 2.2402 0.0000
v  -2.6767 2.2346 -3.2227
v  -3.4515 2.2373 -2.6297
v  -0.8024 2.2282 -3.7270
v  -1.7732 2.2315 -3.5972
v  1.0767 2.2219 -3.2326
v  0.1698 2.2249 -3.6028
v  2.4544 2.2170 -1.8684
v  1.8562 2.2191 -2.6410
v  2.9569 2.2153 -0.0000
v  2.8300 2.2156 -0.9674
v  2.4544 2.2170 1.8684
v  2.8300 2.2156 0.9674
v  1.0767 2.2219 3.2326
v  1.8562 2.2191 2.6410
v  -0.8024 2.2282 3.7270
v  0.1698 2.2249 3.6028
v  -2.6313 2.6375 3.0019
v  -1.7969 2.6365 3.3473
v  -3.8958 2.6392 1.7421
v  -3.3469 2.6385 2.4543
v  -4.4187 2.2400 0.9618
v  -4.3295 8.8893 -0.5851
v  -4.4091 8.8860 0.0201
v  -4.0958 8.8965 -1.1491
v  -3.7237 8.9065 -1.6336
v  -3.2388 8.9195 -2.0057
v  -2.6735 8.9330 -2.2400
v  -2.0667 8.9465 -2.3205
v  -1.4594 8.9595 -2.2415
v  -0.8933 8.9703 -2.0082
v  -0.4069 8.9782 -1.6365
v  -0.0336 8.9822 -1.1516
v  0.2007 8.9836 -0.5865
v  0.2799 8.9833 0.0201
v  0.2014 8.9828 0.6268
v  -0.0323 8.9806 1.1921
v  -0.4051 8.9755 1.6773
v  -0.8914 8.9669 2.0492
v  -1.4575 8.9556 2.2826
v  -2.0650 8.9423 2.3617
v  -2.6722 8.9290 2.2812
v  -3.2378 8.9159 2.0466
v  -3.7230 8.9035 1.6742
v  -4.0954 8.8945 1.1895
v  -4.3293 8.8882 0.6253
v  -4.1232 14.0393 -0.3997
v  -4.1758 14.0366 0.0000
v  -3.9689 14.0464 -0.7721
v  -3.7236 14.0583 -1.0920
v  -3.4038 14.0714 -1.3374
v  -3.0314 14.0874 -1.4916
v  -2.6318 14.1020 -1.5443
v  -2.2322 14.1166 -1.4916
v  -1.8598 14.1269 -1.3374
v  -1.5400 14.1340 -1.0920
v  -1.2946 14.1352 -0.7721
v  -1.1404 14.1303 -0.3997
v  -1.0877 14.1195 -0.0000
v  -1.1404 14.1303 0.3997
v  -1.2946 14.1352 0.7721
v  -1.5400 14.1340 1.0920
v  -1.8598 14.1269 1.3374
v  -2.2321 14.1166 1.4916
v  -2.6318 14.1020 1.5443
v  -3.0314 14.0874 1.4916
v  -3.4038 14.0714 1.3374
v  -3.7236 14.0583 1.0920
v  -3.9689 14.0464 0.7721
v  -4.1232 14.0393 0.3997
v  -3.5464 18.5997 -0.2970
v  -3.5856 18.5984 0.0000
v  -3.4311 18.6054 -0.5737
v  -3.2478 18.6121 -0.8114
v  -3.0085 18.6217 -0.9938
v  -2.7300 18.6301 -1.1085
v  -2.4309 18.6384 -1.1476
v  -2.1318 18.6442 -1.1086
v  -1.8530 18.6465 -0.9940
v  -1.6136 18.6460 -0.8116
v  -1.4299 18.6414 -0.5739
v  -1.3145 18.6331 -0.2971
v  -1.2750 18.6239 -0.0000
v  -1.3145 18.6331 0.2971
v  -1.4299 18.6414 0.5739
v  -1.6136 18.6460 0.8116
v  -1.8530 18.6465 0.9939
v  -2.1318 18.6442 1.1086
v  -2.4309 18.6384 1.1476
v  -2.7300 18.6301 1.1085
v  -3.0085 18.6217 0.9938
v  -3.2478 18.6121 0.8114
v  -3.4311 18.6054 0.5737
v  -3.5464 18.5997 0.2970
v  -0.9424 24.5348 -0.2596
v  -0.9741 24.5412 0.0000
v  -0.8439 24.5196 -0.5010
v  -0.6838 24.4996 -0.7077
v  -0.4724 24.4771 -0.8659
v  -0.2245 24.4536 -0.9650
v  0.0431 24.4298 -0.9984
v  0.3115 24.4067 -0.9639
v  0.5631 24.3866 -0.8640
v  0.7789 24.3691 -0.7052
v  0.9445 24.3560 -0.4986
v  1.0493 24.3483 -0.2581
v  1.0848 24.3448 -0.0000
v  1.0493 24.3483 0.2581
v  0.9445 24.3560 0.4986
v  0.7789 24.3691 0.7052
v  0.5631 24.3866 0.8640
v  0.3115 24.4067 0.9639
v  0.0431 24.4298 0.9984
v  -0.2245 24.4536 0.9650
v  -0.4724 24.4771 0.8659
v  -0.6838 24.4996 0.7077
v  -0.8439 24.5196 0.5010
v  -0.9424 24.5348 0.2596
v  5.9389 33.2028 -0.0718
v  5.9295 33.2036 0.0000
v  5.9667 33.2005 -0.1387
v  6.0108 33.1968 -0.1962
v  6.0683 33.1919 -0.2403
v  6.1353 33.1863 -0.2680
v  6.2072 33.1803 -0.2775
v  6.2791 33.1743 -0.2680
v  6.3461 33.1687 -0.2403
v  6.4037 33.1640 -0.1962
v  6.4478 33.1603 -0.1387
v  6.4756 33.1580 -0.0718
v  6.4850 33.1572 -0.0000
v  6.4756 33.1580 0.0718
v  6.4478 33.1603 0.1387
v  6.4037 33.1640 0.1962
v  6.3461 33.1687 0.2403
v  6.2791 33.1743 0.2680
v  6.2072 33.1803 0.2775
v  6.1353 33.1863 0.2680
v  6.0683 33.1919 0.2403
v  6.0108 33.1968 0.1962
v  5.9667 33.2005 0.1387
v  5.9389 33.2028 0.0718
v  6.2073 33.1843 0.0000
# 146 vertices

vn -0.0255 -0.9993 0.0288
vn -0.0023 -1.0000 0.0003
vn -0.0022 -1.0000 0.0000
vn -0.0029 -1.0000 0.0009
vn -0.0026 -1.0000 0.0007
vn -0.0034 -1.0000 0.0010
vn -0.0031 -1.0000 0.0010
vn -0.0039 -1.0000 0.0009
vn -0.0036 -1.0000 0.0010
vn -0.0044 -1.0000 0.0004
vn -0.0042 -1.0000 0.0007
vn -0.0044 -1.0000 0.0000
vn -0.0044 -1.0000 0.0003
vn -0.0044 -1.0000 -0.0004
vn -0.0044 -1.0000 -0.0003
vn -0.0039 -1.0000 -0.0009
vn -0.0042 -1.0000 -0.0007
vn -0.1793 -0.9838 0.0003
vn -0.0036 -1.0000 -0.0010
vn -0.0585 -0.9934 0.0990
vn -0.2245 -0.9730 0.0527
vn 0.0116 -0.9690 0.2468
vn -0.0818 -0.9934 0.0806
vn 0.0488 -0.9805 0.1902
vn -0.9998 0.0205 -0.0002
vn -0.9642 0.0278 -0.2639
vn -0.9656 0.0377 -0.2573
vn -0.9995 0.0328 0.0005
vn -0.8601 0.0475 -0.5078
vn -0.8660 0.0520 -0.4973
vn -0.6959 0.0781 -0.7139
vn -0.7078 0.0748 -0.7024
vn -0.4843 0.1170 -0.8670
vn -0.5019 0.1046 -0.8586
vn -0.2420 0.1611 -0.9568
vn -0.2630 0.1391 -0.9547
vn 0.0124 0.2070 -0.9783
vn -0.0084 0.1759 -0.9844
vn 0.2604 0.2513 -0.9322
vn 0.2443 0.2123 -0.9462
vn 0.4852 0.2911 -0.8245
vn 0.4774 0.2460 -0.8436
vn 0.6731 0.3241 -0.6647
vn 0.6753 0.2745 -0.6845
vn 0.8138 0.3486 -0.4650
vn 0.8253 0.2963 -0.4807
vn 0.9006 0.3633 -0.2384
vn 0.9183 0.3099 -0.2465
vn 0.9299 0.3678 -0.0002
vn 0.9493 0.3144 -0.0001
vn 0.9012 0.3620 0.2382
vn 0.9182 0.3100 0.2465
vn 0.8148 0.3461 0.4651
vn 0.8252 0.2966 0.4807
vn 0.6741 0.3206 0.6654
vn 0.6751 0.2750 0.6845
vn 0.4861 0.2867 0.8255
vn 0.4772 0.2466 0.8435
vn 0.2609 0.2463 0.9334
vn 0.2441 0.2130 0.9461
vn -0.0273 0.1889 0.9816
vn -0.0084 0.1765 0.9843
vn -0.3394 0.1112 0.9341
vn -0.2670 0.1312 0.9547
vn -0.4862 0.0855 0.8696
vn -0.5021 0.0918 0.8599
vn -0.6975 0.0472 0.7151
vn -0.7079 0.0619 0.7036
vn -0.8205 0.0331 0.5708
vn -0.8661 0.0387 0.4983
vn -0.9468 0.0290 0.3205
vn -0.9644 0.0320 0.2623
vn -0.9629 0.0871 -0.2554
vn -0.9963 0.0864 -0.0002
vn -0.8650 0.0901 -0.4935
vn -0.7090 0.0952 -0.6987
vn -0.5052 0.1019 -0.8570
vn -0.2671 0.1096 -0.9574
vn -0.0106 0.1180 -0.9930
vn 0.2470 0.1262 -0.9608
vn 0.4881 0.1340 -0.8624
vn 0.6958 0.1406 -0.7044
vn 0.8554 0.1459 -0.4970
vn 0.9553 0.1494 -0.2549
vn 0.9882 0.1534 -0.0003
vn 0.9552 0.1507 0.2546
vn 0.8553 0.1481 0.4966
vn 0.6956 0.1435 0.7040
vn 0.4879 0.1375 0.8620
vn 0.2469 0.1299 0.9603
vn -0.0107 0.1217 0.9925
vn -0.2672 0.1132 0.9570
vn -0.5053 0.1050 0.8566
vn -0.7091 0.0977 0.6984
vn -0.8651 0.0919 0.4932
vn -0.9629 0.0880 0.2551
vn -0.9341 0.2589 -0.2457
vn -0.9643 0.2647 -0.0000
vn -0.8444 0.2425 -0.4777
vn -0.6989 0.2139 -0.6825
vn -0.5045 0.1741 -0.8457
vn -0.2718 0.1230 -0.9545
vn -0.0165 0.0641 -0.9978
vn 0.2426 0.0020 -0.9701
vn 0.4849 -0.0569 -0.8727
vn 0.6920 -0.1077 -0.7138
vn 0.8498 -0.1458 -0.5066
vn 0.9492 -0.1689 -0.2655
vn 0.9849 -0.1729 -0.0000
vn 0.9492 -0.1688 0.2657
vn 0.8498 -0.1454 0.5067
vn 0.6920 -0.1071 0.7139
vn 0.4850 -0.0564 0.8727
vn 0.2428 0.0022 0.9701
vn -0.0163 0.0639 0.9978
vn -0.2717 0.1225 0.9545
vn -0.5045 0.1734 0.8458
vn -0.6990 0.2133 0.6826
vn -0.8445 0.2421 0.4777
vn -0.9342 0.2588 0.2456
vn -0.8327 0.5005 -0.2368
vn -0.8577 0.5142 -0.0000
vn -0.7542 0.4600 -0.4686
vn -0.6240 0.3932 -0.6753
vn -0.4479 0.3013 -0.8418
vn -0.2354 0.1874 -0.9536
vn -0.0009 0.0582 -0.9983
vn 0.2359 -0.0754 -0.9689
vn 0.4554 -0.2016 -0.8672
vn 0.6406 -0.3092 -0.7029
vn 0.7778 -0.3896 -0.4931
vn 0.8617 -0.4392 -0.2543
vn 0.8902 -0.4556 -0.0000
vn 0.8616 -0.4393 0.2544
vn 0.7776 -0.3901 0.4931
vn 0.6404 -0.3099 0.7028
vn 0.4553 -0.2023 0.8670
vn 0.2359 -0.0759 0.9688
vn -0.0008 0.0582 0.9983
vn -0.2352 0.1880 0.9536
vn -0.4477 0.3022 0.8416
vn -0.6237 0.3941 0.6750
vn -0.7539 0.4606 0.4684
vn -0.8326 0.5008 0.2367
vn -0.7602 0.6085 -0.2276
vn -0.7820 0.6232 0.0000
vn -0.6933 0.5628 -0.4501
vn -0.5771 0.4831 -0.6584
vn -0.4089 0.3671 -0.8355
vn -0.1941 0.2178 -0.9565
vn 0.0483 0.0483 -0.9977
vn 0.2877 -0.1205 -0.9501
vn 0.4958 -0.2680 -0.8260
vn 0.6569 -0.3827 -0.6496
vn 0.7678 -0.4620 -0.4438
vn 0.8318 -0.5078 -0.2244
vn 0.8526 -0.5226 -0.0000
vn 0.8319 -0.5076 0.2244
vn 0.7680 -0.4617 0.4439
vn 0.6571 -0.3823 0.6497
vn 0.4959 -0.2675 0.8261
vn 0.2877 -0.1201 0.9502
vn 0.0482 0.0483 0.9977
vn -0.1942 0.2176 0.9565
vn -0.4090 0.3667 0.8356
vn -0.5773 0.4827 0.6586
vn -0.6934 0.5625 0.4502
vn -0.7603 0.6083 0.2277
vn 0.0832 0.9965 -0.0000
vn 0.0699 0.9975 0.0039
vn 0.0694 0.9976 -0.0000
vn 0.0699 0.9975 -0.0039
vn 0.0713 0.9974 -0.0075
vn 0.0736 0.9972 -0.0105
vn 0.0765 0.9970 -0.0128
vn 0.0798 0.9967 -0.0141
vn 0.0832 0.9964 -0.0146
vn 0.0867 0.9961 -0.0141
vn 0.0899 0.9959 -0.0127
vn 0.0928 0.9956 -0.0105
vn 0.0951 0.9954 -0.0075
vn 0.0966 0.9953 -0.0039
vn 0.0971 0.9953 -0.0000
vn 0.0966 0.9953 0.0039
vn 0.0951 0.9954 0.0075
vn 0.0928 0.9956 0.0105
vn 0.0899 0.9959 0.0127
vn 0.0867 0.9961 0.0141
vn 0.0832 0.9964 0.0146
vn 0.0798 0.9967 0.0141
vn 0.0765 0.9970 0.0128
vn 0.0736 0.9972 0.0105
vn 0.0713 0.9974 0.0075
# 193 vertex normals

vt 0.5000 0.0000 0.0000
vt 0.8333 0.0000 1.0000
vt 0.7917 0.0000 1.0000
vt 0.7500 0.0000 1.0000
vt 0.9167 0.0000 1.0000
vt 0.8750 0.0000 1.0000
vt 1.0000 0.0000 1.0000
vt 0.9583 0.0000 1.0000
vt 0.0833 0.0000 1.0000
vt 0.0417 0.0000 1.0000
vt -0.0000 0.0000 1.0000
vt 0.1667 0.0000 1.0000
vt 0.1250 0.0000 1.0000
vt 0.2500 0.0000 1.0000
vt 0.2083 0.0000 1.0000
vt 0.3333 0.0000 1.0000
vt 0.2917 0.0000 1.0000
vt 0.4167 0.0000 1.0000
vt 0.3750 0.0000 1.0000
vt 0.5000 0.0000 1.0000
vt 0.4583 0.0000 1.0000
vt 0.5833 0.0000 1.0000
vt 0.5417 0.0000 1.0000
vt 0.6667 0.0000 1.0000
vt 0.6250 0.0000 1.0000
vt 0.7083 0.0000 1.0000
vt 0.7917 0.2000 0.8269
vt 0.7500 0.2000 0.8269
vt 0.8333 0.2000 0.8269
vt 0.8750 0.2000 0.8269
vt 0.9167 0.2000 0.8269
vt 0.9583 0.2000 0.8269
vt 1.0000 0.2000 0.8269
vt 0.0417 0.2000 0.8269
vt -0.0000 0.2000 0.8269
vt 0.0833 0.2000 0.8269
vt 0.1250 0.2000 0.8269
vt 0.1667 0.2000 0.8269
vt 0.2083 0.2000 0.8269
vt 0.2500 0.2000 0.8269
vt 0.2917 0.2000 0.8269
vt 0.3333 0.2000 0.8269
vt 0.3750 0.2000 0.8269
vt 0.4167 0.2000 0.8269
vt 0.4583 0.2000 0.8269
vt 0.5000 0.2000 0.8269
vt 0.5417 0.2000 0.8269
vt 0.5833 0.2000 0.8269
vt 0.6250 0.2000 0.8269
vt 0.6667 0.2000 0.8269
vt 0.7083 0.2000 0.8269
vt 0.7917 0.4000 0.6537
vt 0.7500 0.4000 0.6537
vt 0.8333 0.4000 0.6537
vt 0.8750 0.4000 0.6537
vt 0.9167 0.4000 0.6537
vt 0.9583 0.4000 0.6537
vt 1.0000 0.4000 0.6537
vt 0.0417 0.4000 0.6537
vt -0.0000 0.4000 0.6537
vt 0.0833 0.4000 0.6537
vt 0.1250 0.4000 0.6537
vt 0.1667 0.4000 0.6537
vt 0.2083 0.4000 0.6537
vt 0.2500 0.4000 0.6537
vt 0.2917 0.4000 0.6537
vt 0.3333 0.4000 0.6537
vt 0.3750 0.4000 0.6537
vt 0.4167 0.4000 0.6537
vt 0.4583 0.4000 0.6537
vt 0.5000 0.4000 0.6537
vt 0.5417 0.4000 0.6537
vt 0.5833 0.4000 0.6537
vt 0.6250 0.4000 0.6537
vt 0.6667 0.4000 0.6537
vt 0.7083 0.4000 0.6537
vt 0.7917 0.6000 0.4806
vt 0.7500 0.6000 0.4806
vt 0.8333 0.6000 0.4806
vt 0.8750 0.6000 0.4806
vt 0.9167 0.6000 0.4806
vt 0.9583 0.6000 0.4806
vt 1.0000 0.6000 0.4806
vt 0.0417 0.6000 0.4806
vt -0.0000 0.6000 0.4806
vt 0.0833 0.6000 0.4806
vt 0.1250 0.6000 0.4806
vt 0.1667 0.6000 0.4806
vt 0.2083 0.6000 0.4806
vt 0.2500 0.6000 0.4806
vt 0.2917 0.6000 0.4806
vt 0.3333 0.6000 0.4806
vt 0.3750 0.6000 0.4806
vt 0.4167 0.6000 0.4806
vt 0.4583 0.6000 0.4806
vt 0.5000 0.6000 0.4806
vt 0.5417 0.6000 0.4806
vt 0.5833 0.6000 0.4806
vt 0.6250 0.6000 0.4806
vt 0.6667 0.6000 0.4806
vt 0.7083 0.6000 0.4806
vt 0.7917 0.8000 0.3075
vt 0.7500 0.8000 0.3075
vt 0.8333 0.8000 0.3075
vt 0.8750 0.8000 0.3075
vt 0.9167 0.8000 0.3075
vt 0.9583 0.8000 0.3075
vt 1.0000 0.8000 0.3075
vt 0.0417 0.8000 0.3075
vt -0.0000 0.8000 0.3075
vt 0.0833 0.8000 0.3075
vt 0.1250 0.8000 0.3075
vt 0.1667 0.8000 0.3075
vt 0.2083 0.8000 0.3075
vt 0.2500 0.8000 0.3075
vt 0.2917 0.8000 0.3075
vt 0.3333 0.8000 0.3075
vt 0.3750 0.8000 0.3075
vt 0.4167 0.8000 0.3075
vt 0.4583 0.8000 0.3075
vt 0.5000 0.8000 0.3075
vt 0.5417 0.8000 0.3075
vt 0.5833 0.8000 0.3075
vt 0.6250 0.8000 0.3075
vt 0.6667 0.8000 0.3075
vt 0.7083 0.8000 0.3075
vt 0.7917 1.0000 0.1344
vt 0.7500 1.0000 0.1344
vt 0.8333 1.0000 0.1344
vt 0.8750 1.0000 0.1344
vt 0.9167 1.0000 0.1344
vt 0.9583 1.0000 0.1344
vt 1.0000 1.0000 0.1344
vt 0.0417 1.0000 0.1344
vt 0.0000 1.0000 0.1344
vt 0.0833 1.0000 0.1344
vt 0.1250 1.0000 0.1344
vt 0.1667 1.0000 0.1344
vt 0.2083 1.0000 0.1344
vt 0.2500 1.0000 0.1344
vt 0.2917 1.0000 0.1344
vt 0.3333 1.0000 0.1344
vt 0.3750 1.0000 0.1344
vt 0.4167 1.0000 0.1344
vt 0.4583 1.0000 0.1344
vt 0.5000 1.0000 0.1344
vt 0.5417 1.0000 0.1344
vt 0.5833 1.0000 0.1344
vt 0.6250 1.0000 0.1344
vt 0.6667 1.0000 0.1344
vt 0.7083 1.0000 0.1344
vt 0.5000 1.0000 0.0000
vt -0.0076 1.0000 0.1252
# 153 texture coords

g Cone002
usemtl Material__3
s 1
f 41/41/40 40/40/40 39/39/39 38/38/38 
f 39/39/39 43/43/42 42/42/41 38/38/38 
f 42/42/41 45/45/44 44/44/43 38/38/38 
f 44/48/43 47/47/46 46/46/45 38/38/38 
f 46/46/45 49/50/48 48/49/47 38/38/38 
f 48/49/47 51/52/50 50/51/49 38/38/38 
f 50/51/49 53/54/52 52/53/51 38/38/38 
f 52/53/51 55/56/54 54/55/53 38/38/38 
f 54/55/53 57/58/56 56/57/55 38/38/38 
f 56/57/55 59/60/58 58/59/57 38/38/38 
f 58/59/57 61/62/60 60/61/59 38/38/38 
f 60/61/59 62/63/61 41/41/40 38/38/38 
s 8
f 64/65/65 63/64/64 40/40/63 41/41/62 
f 63/64/64 65/66/67 39/39/66 40/40/63 
f 65/66/67 66/67/69 43/43/68 39/39/66 
f 66/67/69 67/68/71 42/42/70 43/43/68 
f 67/68/71 68/69/73 45/45/72 42/42/70 
f 68/69/73 69/70/75 44/44/74 45/45/72 
f 69/72/75 70/71/77 47/47/76 44/48/74 
f 70/71/77 71/73/79 46/46/78 47/47/76 
f 71/73/79 72/74/81 49/50/80 46/46/78 
f 72/74/81 73/75/83 48/49/82 49/50/80 
f 73/75/83 74/76/85 51/52/84 48/49/82 
f 74/76/85 75/77/87 50/51/86 51/52/84 
f 75/77/87 76/78/89 53/54/88 50/51/86 
f 76/78/89 77/79/91 52/53/90 53/54/88 
f 77/79/91 78/80/93 55/56/92 52/53/90 
f 78/80/93 79/81/95 54/55/94 55/56/92 
f 79/81/95 80/82/97 57/58/96 54/55/94 
f 80/82/97 81/83/99 56/57/98 57/58/96 
f 81/83/99 82/84/101 59/60/100 56/57/98 
f 82/84/101 83/85/103 58/59/102 59/60/100 
f 83/85/103 84/86/105 61/62/104 58/59/102 
f 84/86/105 85/87/107 60/61/106 61/62/104 
f 85/87/107 86/88/109 62/63/108 60/61/106 
f 86/88/109 64/65/65 41/41/62 62/63/108 
f 88/90/111 87/89/110 63/64/64 64/65/65 
f 87/89/110 89/91/112 65/66/67 63/64/64 
f 89/91/112 90/92/113 66/67/69 65/66/67 
f 90/92/113 91/93/114 67/68/71 66/67/69 
f 91/93/114 92/94/115 68/69/73 67/68/71 
f 92/94/115 93/95/116 69/70/75 68/69/73 
f 93/97/116 94/96/117 70/71/77 69/72/75 
f 94/96/117 95/98/118 71/73/79 70/71/77 
f 95/98/118 96/99/119 72/74/81 71/73/79 
f 96/99/119 97/100/120 73/75/83 72/74/81 
f 97/100/120 98/101/121 74/76/85 73/75/83 
f 98/101/121 99/102/122 75/77/87 74/76/85 
f 99/102/122 100/103/123 76/78/89 75/77/87 
f 100/103/123 101/104/124 77/79/91 76/78/89 
f 101/104/124 102/105/125 78/80/93 77/79/91 
f 102/105/125 103/106/126 79/81/95 78/80/93 
f 103/106/126 104/107/127 80/82/97 79/81/95 
f 104/107/127 105/108/128 81/83/99 80/82/97 
f 105/108/128 106/109/129 82/84/101 81/83/99 
f 106/109/129 107/110/130 83/85/103 82/84/101 
f 107/110/130 108/111/131 84/86/105 83/85/103 
f 108/111/131 109/112/132 85/87/107 84/86/105 
f 109/112/132 110/113/133 86/88/109 85/87/107 
f 110/113/133 88/90/111 64/65/65 86/88/109 
f 112/115/135 111/114/134 87/89/110 88/90/111 
f 111/114/134 113/116/136 89/91/112 87/89/110 
f 113/116/136 114/117/137 90/92/113 89/91/112 
f 114/117/137 115/118/138 91/93/114 90/92/113 
f 115/118/138 116/119/139 92/94/115 91/93/114 
f 116/119/139 117/120/140 93/95/116 92/94/115 
f 117/122/140 118/121/141 94/96/117 93/97/116 
f 118/121/141 119/123/142 95/98/118 94/96/117 
f 119/123/142 120/124/143 96/99/119 95/98/118 
f 120/124/143 121/125/144 97/100/120 96/99/119 
f 121/125/144 122/126/145 98/101/121 97/100/120 
f 122/126/145 123/127/146 99/102/122 98/101/121 
f 123/127/146 124/128/147 100/103/123 99/102/122 
f 124/128/147 125/129/148 101/104/124 100/103/123 
f 125/129/148 126/130/149 102/105/125 101/104/124 
f 126/130/149 127/131/150 103/106/126 102/105/125 
f 127/131/150 128/132/151 104/107/127 103/106/126 
f 128/132/151 129/133/152 105/108/128 104/107/127 
f 129/133/152 130/134/153 106/109/129 105/108/128 
f 130/134/153 131/135/154 107/110/130 106/109/129 
f 131/135/154 132/136/155 108/111/131 107/110/130 
f 132/136/155 133/137/156 109/112/132 108/111/131 
f 133/137/156 134/138/157 110/113/133 109/112/132 
f 134/138/157 112/115/135 88/90/111 110/113/133 
f 136/140/159 135/139/158 111/114/134 112/115/135 
f 135/139/158 137/141/160 113/116/136 111/114/134 
f 137/141/160 138/142/161 114/117/137 113/116/136 
f 138/142/161 139/143/162 115/118/138 114/117/137 
f 139/143/162 140/144/163 116/119/139 115/118/138 
f 140/144/163 141/145/164 117/120/140 116/119/139 
f 141/147/164 142/146/165 118/121/141 117/122/140 
f 142/146/165 143/148/166 119/123/142 118/121/141 
f 143/148/166 144/149/167 120/124/143 119/123/142 
f 144/149/167 145/150/168 121/125/144 120/124/143 
f 145/150/168 146/151/169 122/126/145 121/125/144 
f 146/151/169 147/152/170 123/127/146 122/126/145 
f 147/152/170 148/153/171 124/128/147 123/127/146 
f 148/153/171 149/154/172 125/129/148 124/128/147 
f 149/154/172 150/155/173 126/130/149 125/129/148 
f 150/155/173 151/156/174 127/131/150 126/130/149 
f 151/156/174 152/157/175 128/132/151 127/131/150 
f 152/157/175 153/158/176 129/133/152 128/132/151 
f 153/158/176 154/159/177 130/134/153 129/133/152 
f 154/159/177 155/160/178 131/135/154 130/134/153 
f 155/160/178 156/161/179 132/136/155 131/135/154 
f 156/161/179 157/162/180 133/137/156 132/136/155 
f 157/162/180 158/163/181 134/138/157 133/137/156 
f 158/163/181 136/140/159 112/115/135 134/138/157 
f 160/165/183 159/164/182 135/139/158 136/140/159 
f 159/164/182 161/166/184 137/141/160 135/139/158 
f 161/166/184 162/167/185 138/142/161 137/141/160 
f 162/167/185 163/168/186 139/143/162 138/142/161 
f 163/168/186 164/169/187 140/144/163 139/143/162 
f 164/169/187 165/170/188 141/145/164 140/144/163 
f 165/172/188 166/171/189 142/146/165 141/147/164 
f 166/171/189 167/173/190 143/148/166 142/146/165 
f 167/173/190 168/174/191 144/149/167 143/148/166 
f 168/174/191 169/175/192 145/150/168 144/149/167 
f 169/175/192 170/176/193 146/151/169 145/150/168 
f 170/176/193 171/177/194 147/152/170 146/151/169 
f 171/177/194 172/178/195 148/153/171 147/152/170 
f 172/178/195 173/179/196 149/154/172 148/153/171 
f 173/179/196 174/180/197 150/155/173 149/154/172 
f 174/180/197 175/181/198 151/156/174 150/155/173 
f 175/181/198 176/182/199 152/157/175 151/156/174 
f 176/182/199 177/183/200 153/158/176 152/157/175 
f 177/183/200 178/184/201 154/159/177 153/158/176 
f 178/184/201 179/185/202 155/160/178 154/159/177 
f 179/185/202 180/186/203 156/161/179 155/160/178 
f 180/186/203 181/187/204 157/162/180 156/161/179 
f 181/187/204 182/188/205 158/163/181 157/162/180 
f 182/188/205 160/165/183 136/140/159 158/163/181 
s 1
f 159/164/209 160/165/208 182/188/207 183/189/206 
f 162/167/211 161/166/210 159/164/209 183/189/206 
f 164/169/213 163/168/212 162/167/211 183/189/206 
f 166/171/215 165/172/214 164/190/213 183/189/206 
f 168/174/217 167/173/216 166/171/215 183/189/206 
f 170/176/219 169/175/218 168/174/217 183/189/206 
f 172/178/221 171/177/220 170/176/219 183/189/206 
f 174/180/223 173/179/222 172/178/221 183/189/206 
f 176/182/225 175/181/224 174/180/223 183/189/206 
f 178/184/227 177/183/226 176/182/225 183/189/206 
f 180/186/229 179/185/228 178/184/227 183/189/206 
f 182/188/207 181/187/230 180/186/229 183/189/206 
# 144 polygons

